<?xml version="1.0" encoding="UTF-8"?> <svg xmlns="http://www.w3.org/2000/svg" xmlns:v="https://vecta.io/nano" fill-rule="evenodd" stroke-linejoin="round" stroke-miterlimit="2" viewBox="0 0 2675 232"><path d="M1244.543 155.989l47.167 72.446h-37.612l-39.15-61.042a889.954 889.954 0 0 0-10.942-16.338c-3.396-4.929-6.834-9.35-10.33-13.254-5.754-6.783-14.692-10.18-26.82-10.18H1142.5v100.814h-31.755V2.771h60.734c11.717 0 22.3 1.233 31.755 3.7s17.775 6.37 24.967 11.717c7.195 5.55 12.591 12.329 16.187 20.346 3.596 8.012 5.396 16.95 5.396 26.817 0 15.62-4.73 28.258-14.18 37.92-5.966 5.963-12.233 10.892-18.808 14.8a78.231 78.231 0 0 1 4.78 5.238 121.311 121.311 0 0 1 4.779 6.167l9.4 13.563 8.787 12.95zm-39.15-66.28c3.696-2.88 6.525-6.27 8.475-10.175s2.93-8.733 2.93-14.492c0-10.27-3.7-18.287-11.097-24.046-8.429-6.162-19.937-9.242-34.53-9.242h-28.67v66.893h27.13c8.224 0 15.258-.767 21.116-2.313s10.738-3.75 14.646-6.625z" fill="#888a83"></path><path d="M2543.512 120.368c-10.892 10.275-16.338 23.946-16.338 41.004 0 20.346 7.192 36.375 21.58 48.092 14.18 11.096 33.092 16.646 56.721 16.646h69.059V.446H2621.2c-11.096 0-21.27 1.283-30.52 3.854s-17.368 6.525-24.351 11.867c-13.98 11.512-20.967 27.133-20.967 46.859 0 17.879 6.68 32.375 20.038 43.467-8.425 3.087-15.725 7.708-21.888 13.875zm46.242-31.138c-3.696-2.875-6.52-6.267-8.48-10.175-1.95-3.9-2.924-8.73-2.924-14.488 0-6.37.975-11.662 2.925-15.875 1.958-4.217 4.675-7.654 8.17-10.33 3.91-2.874 8.893-5.083 14.955-6.624s13.513-2.313 22.35-2.313h16.03v68.438h-16.955c-16.442 0-28.467-2.879-36.07-8.633zm-18.188 98.65c-7.808-5.962-11.712-14.283-11.712-24.97 0-6.575 1.025-11.971 3.08-16.184s5.137-7.658 9.25-10.329c4.524-3.083 10.12-5.442 16.8-7.092 6.678-1.641 14.954-2.466 24.816-2.466h28.98v70.288h-34.217c-8.43 0-15.626-.821-21.584-2.463s-11.096-3.904-15.413-6.783zM1790.548 32.984c23.017 22.4 34.525 49.942 34.525 82.617 0 32.475-11.508 59.913-34.525 82.313-22.813 22.196-50.972 33.292-84.472 33.292-33.908 0-62.171-10.992-84.78-32.984-22.808-22.196-34.217-49.733-34.217-82.621s11.309-60.317 33.913-82.309C1643.805 11.092 1672.168 0 1706.076 0c33.292 0 61.455 10.992 84.472 32.984zm-23.738 142.738c16.85-16.858 25.28-36.896 25.28-60.121s-8.43-43.259-25.28-60.117c-16.646-16.642-36.892-24.967-60.734-24.967-24.042 0-44.388 8.325-61.042 24.967-16.642 16.65-24.967 36.692-24.967 60.117 0 23.638 8.221 43.675 24.663 60.121 16.646 16.642 37.096 24.967 61.346 24.967 23.842 0 44.088-8.325 60.734-24.967z" fill="#231f20"></path><path d="M1500.254 32.984c11.1 10.279 19.37 22.3 24.817 36.067 5.445 13.775 8.166 29.391 8.166 46.862 0 32.884-10.479 59.91-31.442 81.076-10.687 10.688-23.329 18.6-37.917 23.738-14.596 5.137-31.033 7.708-49.325 7.708h-84.78V2.771h82.622c18.292 0 34.733 2.467 49.325 7.4s27.434 12.538 38.534 22.813zm-24.355 143.66c16.238-15.21 24.355-35.455 24.355-60.73s-8.017-45.626-24.046-61.043-37.817-23.117-65.36-23.117h-49.32v167.702h48.708c27.538 0 49.426-7.604 65.663-22.813zM981.083 1.23l103.892 227.205h-33.604l-33.288-72.755h-92.796l-33.292 72.755h-33.913L962.282 1.23h18.8zM938.54 126.7h66.284l-33.292-72.755L938.54 126.7zM820.873 2.77v225.665h-24.97L647.308 57.646v170.79h-31.754V2.77h25.284l41.612 49.325 40.388 45.317a5832.642 5832.642 0 0 1 33.138 37.763 7146.992 7146.992 0 0 1 33.142 38.384V2.77h31.754zM532.454 32.984c23.017 22.4 34.526 49.942 34.526 82.617 0 32.475-11.509 59.913-34.526 82.313-22.812 22.196-50.97 33.292-84.471 33.292-33.909 0-62.172-10.992-84.78-32.984-22.813-22.196-34.217-49.733-34.217-82.621s11.304-60.317 33.909-82.309C385.71 11.092 414.075 0 447.983 0c33.292 0 61.45 10.992 84.471 32.984zm-23.742 142.738c16.855-16.858 25.284-36.896 25.284-60.121s-8.43-43.259-25.284-60.117c-16.646-16.642-36.887-24.967-60.73-24.967-24.045 0-44.391 8.325-61.041 24.967-16.646 16.65-24.967 36.692-24.967 60.117 0 23.638 8.22 43.675 24.658 60.121 16.646 16.642 37.1 24.967 61.35 24.967 23.843 0 44.084-8.325 60.73-24.967zM296.44 199.456v28.98H163.568V2.77h130.718v28.983h-98.964v68.743h96.185v28.98h-96.185v69.979H296.44zm-160.793 0v28.98H0V2.77h31.754v196.685h103.893z" fill="#888a83"></path><path d="M1871.798.446V226.11h24.971l148.593-170.789v170.79h31.755V.445h-25.284L2010.22 49.77l-40.388 45.313a5833.383 5833.383 0 0 0-33.137 37.767 7145.149 7145.149 0 0 0-33.142 38.38V.446h-31.755zm244.961 196.681v28.983h132.872V.446h-130.714v28.98h98.96v68.746h-96.185v28.975h96.184v69.98H2116.76zM2287.427.446v126.7c0 14.597 2.154 27.955 6.47 40.08 4.321 12.125 10.896 23.021 19.73 32.68 17.883 19.317 41.004 28.975 69.367 28.975 28.155 0 51.171-9.35 69.05-28.054s26.826-42.747 26.826-72.138V.446h-31.755v127.013c0 11.509-1.487 21.53-4.47 30.059-2.975 8.53-7.346 15.875-13.1 22.042-11.509 12.537-27.13 18.804-46.86 18.804-19.524 0-34.937-6.475-46.241-19.425-5.55-6.37-9.817-13.921-12.796-22.654s-4.467-18.859-4.467-30.367V.446h-31.754z" fill="#231f20"></path></svg> 